<mxfile host="app.diagrams.net" agent="Mozilla/5.0 (Windows NT 10.0; Win64; x64) AppleWebKit/537.36 (KHTML, like Gecko) Chrome/128.0.0.0 Safari/537.36" version="24.7.14">
  <diagram id="-XPNKiFjfZdTfv9uv71p" name="ページ1">
    <mxGraphModel dx="1974" dy="1219" grid="1" gridSize="10" guides="1" tooltips="1" connect="1" arrows="1" fold="1" page="0" pageScale="1" pageWidth="827" pageHeight="1169" background="none" math="0" shadow="0">
      <root>
        <mxCell id="0" />
        <mxCell id="1" parent="0" />
        <mxCell id="node3" value="&lt;p style=&quot;margin:0px;margin-top:4px;text-align:center;&quot;&gt;&lt;b&gt;TBL_CREATOR&lt;/b&gt;&lt;/p&gt;&lt;hr size=&quot;1&quot;/&gt;&lt;p style=&quot;margin:0 0 0 4px;line-height:1.6;&quot;&gt; user_id: uuid&lt;br/&gt; contact_address: varchar(64)&lt;br/&gt; transfer_target: varchar(64)&lt;/p&gt;&lt;hr size=&quot;1&quot;/&gt;&lt;p style=&quot;margin:0 0 0 4px;line-height:1.6;&quot;&gt; creator_id: uuid&lt;/p&gt;" style="verticalAlign=top;align=left;overflow=fill;fontSize=14;fontFamily=Helvetica;html=1;rounded=0;shadow=0;comic=0;labelBackgroundColor=none;strokeWidth=1;fillColor=#FAD9D5;strokeColor=#D0CEE2;fontColor=#1A1A1A;" parent="1" vertex="1">
          <mxGeometry x="128" y="244" width="246" height="153" as="geometry" />
        </mxCell>
        <mxCell id="node12" value="&lt;p style=&quot;margin:0px;margin-top:4px;text-align:center;&quot;&gt;&lt;b&gt;TBL_CREATOR_PRODUCT&lt;/b&gt;&lt;/p&gt;&lt;hr size=&quot;1&quot;/&gt;&lt;p style=&quot;margin:0 0 0 4px;line-height:1.6;&quot;&gt; creator_id: uuid&lt;br/&gt; product_id: uuid&lt;/p&gt;" style="verticalAlign=top;align=left;overflow=fill;fontSize=14;fontFamily=Helvetica;html=1;rounded=0;shadow=0;comic=0;labelBackgroundColor=none;strokeWidth=1;fillColor=#FAD9D5;strokeColor=#D0CEE2;fontColor=#1A1A1A;" parent="1" vertex="1">
          <mxGeometry x="-157" y="988" width="269" height="104" as="geometry" />
        </mxCell>
        <mxCell id="node0" value="&lt;p style=&quot;margin:0px;margin-top:4px;text-align:center;&quot;&gt;&lt;b&gt;TBL_CREATOR_RECRUIT&lt;/b&gt;&lt;/p&gt;&lt;hr size=&quot;1&quot;/&gt;&lt;p style=&quot;margin:0 0 0 4px;line-height:1.6;&quot;&gt; title: varchar(64)&lt;br/&gt; context: varchar(255)&lt;br/&gt; recruiting_id: uuid&lt;br/&gt; recruiting_creator_id: uuid&lt;/p&gt;" style="verticalAlign=top;align=left;overflow=fill;fontSize=14;fontFamily=Helvetica;html=1;rounded=0;shadow=0;comic=0;labelBackgroundColor=none;strokeWidth=1;fillColor=#FAD9D5;strokeColor=#D0CEE2;fontColor=#1A1A1A;" parent="1" vertex="1">
          <mxGeometry x="183" y="964" width="256" height="152" as="geometry" />
        </mxCell>
        <mxCell id="node8" value="&lt;p style=&quot;margin:0px;margin-top:4px;text-align:center;&quot;&gt;&lt;b&gt;TBL_LIKE&lt;/b&gt;&lt;/p&gt;&lt;hr size=&quot;1&quot;/&gt;&lt;p style=&quot;margin:0 0 0 4px;line-height:1.6;&quot;&gt; product_id: uuid&lt;br/&gt; user_id: uuid&lt;/p&gt;" style="verticalAlign=top;align=left;overflow=fill;fontSize=14;fontFamily=Helvetica;html=1;rounded=0;shadow=0;comic=0;labelBackgroundColor=none;strokeWidth=1;fillColor=#FAD9D5;strokeColor=#D0CEE2;fontColor=#1A1A1A;" parent="1" vertex="1">
          <mxGeometry x="-68" y="472" width="158" height="104" as="geometry" />
        </mxCell>
        <mxCell id="node1" value="&lt;p style=&quot;margin:0px;margin-top:4px;text-align:center;&quot;&gt;&lt;b&gt;TBL_NOTIFICATION&lt;/b&gt;&lt;/p&gt;&lt;hr size=&quot;1&quot;/&gt;&lt;p style=&quot;margin:0 0 0 4px;line-height:1.6;&quot;&gt; notification_id: uuid&lt;/p&gt;" style="verticalAlign=top;align=left;overflow=fill;fontSize=14;fontFamily=Helvetica;html=1;rounded=0;shadow=0;comic=0;labelBackgroundColor=none;strokeWidth=1;fillColor=#FAD9D5;strokeColor=#D0CEE2;fontColor=#1A1A1A;" parent="1" vertex="1">
          <mxGeometry x="381" y="486" width="221" height="73" as="geometry" />
        </mxCell>
        <mxCell id="node6" value="&lt;p style=&quot;margin:0px;margin-top:4px;text-align:center;&quot;&gt;&lt;b&gt;TBL_NOTIFICATION_COLLABO&lt;/b&gt;&lt;/p&gt;&lt;hr size=&quot;1&quot;/&gt;&lt;p style=&quot;margin:0 0 0 4px;line-height:1.6;&quot;&gt; sender_creator_id: uuid&lt;br/&gt; sent_creator_id: uuid&lt;/p&gt;&lt;hr size=&quot;1&quot;/&gt;&lt;p style=&quot;margin:0 0 0 4px;line-height:1.6;&quot;&gt; notification_id: uuid&lt;/p&gt;" style="verticalAlign=top;align=left;overflow=fill;fontSize=14;fontFamily=Helvetica;html=1;rounded=0;shadow=0;comic=0;labelBackgroundColor=none;strokeWidth=1;fillColor=#FAD9D5;strokeColor=#D0CEE2;fontColor=#1A1A1A;" parent="1" vertex="1">
          <mxGeometry x="333" y="798" width="316" height="135" as="geometry" />
        </mxCell>
        <mxCell id="node5" value="&lt;p style=&quot;margin:0px;margin-top:4px;text-align:center;&quot;&gt;&lt;b&gt;TBL_NOTIFICATION_PURCHASE&lt;/b&gt;&lt;/p&gt;&lt;hr size=&quot;1&quot;/&gt;&lt;p style=&quot;margin:0 0 0 4px;line-height:1.6;&quot;&gt; purchase_user_id: uuid&lt;br/&gt; sell_creator_id: uuid&lt;/p&gt;&lt;hr size=&quot;1&quot;/&gt;&lt;p style=&quot;margin:0 0 0 4px;line-height:1.6;&quot;&gt; notification_id: uuid&lt;/p&gt;" style="verticalAlign=top;align=left;overflow=fill;fontSize=14;fontFamily=Helvetica;html=1;rounded=0;shadow=0;comic=0;labelBackgroundColor=none;strokeWidth=1;fillColor=#FAD9D5;strokeColor=#D0CEE2;fontColor=#1A1A1A;" parent="1" vertex="1">
          <mxGeometry x="627" y="978" width="328" height="135" as="geometry" />
        </mxCell>
        <mxCell id="node9" value="&lt;p style=&quot;margin:0px;margin-top:4px;text-align:center;&quot;&gt;&lt;b&gt;TBL_PRODUCT&lt;/b&gt;&lt;/p&gt;&lt;hr size=&quot;1&quot;/&gt;&lt;p style=&quot;margin:0 0 0 4px;line-height:1.6;&quot;&gt; product_price: varchar(64)&lt;br/&gt; product_title: varchar(64)&lt;br/&gt; product_text: varchar(255)&lt;br/&gt; product_date: timestamp&lt;br/&gt; product_thumbnail_uuid: uuid&lt;br/&gt; product_contents_uuid: uuid&lt;/p&gt;&lt;hr size=&quot;1&quot;/&gt;&lt;p style=&quot;margin:0 0 0 4px;line-height:1.6;&quot;&gt; product_id: uuid&lt;/p&gt;" style="verticalAlign=top;align=left;overflow=fill;fontSize=14;fontFamily=Helvetica;html=1;rounded=0;shadow=0;comic=0;labelBackgroundColor=none;strokeWidth=1;fillColor=#FAD9D5;strokeColor=#D0CEE2;fontColor=#1A1A1A;" parent="1" vertex="1">
          <mxGeometry x="-157" y="-118" width="256" height="237" as="geometry" />
        </mxCell>
        <mxCell id="node10" value="&lt;p style=&quot;margin:0px;margin-top:4px;text-align:center;&quot;&gt;&lt;b&gt;TBL_PRODUCT_TAG&lt;/b&gt;&lt;/p&gt;&lt;hr size=&quot;1&quot;/&gt;&lt;p style=&quot;margin:0 0 0 4px;line-height:1.6;&quot;&gt; item_id: uuid&lt;br/&gt; tag_id: uuid&lt;/p&gt;" style="verticalAlign=top;align=left;overflow=fill;fontSize=14;fontFamily=Helvetica;html=1;rounded=0;shadow=0;comic=0;labelBackgroundColor=none;strokeWidth=1;fillColor=#FAD9D5;strokeColor=#D0CEE2;fontColor=#1A1A1A;" parent="1" vertex="1">
          <mxGeometry x="900" y="472" width="222" height="104" as="geometry" />
        </mxCell>
        <mxCell id="node2" value="&lt;p style=&quot;margin:0px;margin-top:4px;text-align:center;&quot;&gt;&lt;b&gt;TBL_PURCHASE&lt;/b&gt;&lt;/p&gt;&lt;hr size=&quot;1&quot;/&gt;&lt;p style=&quot;margin:0 0 0 4px;line-height:1.6;&quot;&gt; item_id: uuid&lt;br/&gt; price: varchar(64)&lt;br/&gt; date: timestamp&lt;br/&gt; user_id: uuid&lt;/p&gt;&lt;hr size=&quot;1&quot;/&gt;&lt;p style=&quot;margin:0 0 0 4px;line-height:1.6;&quot;&gt; purchase_id: uuid&lt;/p&gt;" style="verticalAlign=top;align=left;overflow=fill;fontSize=14;fontFamily=Helvetica;html=1;rounded=0;shadow=0;comic=0;labelBackgroundColor=none;strokeWidth=1;fillColor=#FAD9D5;strokeColor=#D0CEE2;fontColor=#1A1A1A;" parent="1" vertex="1">
          <mxGeometry x="659" y="430" width="185" height="181" as="geometry" />
        </mxCell>
        <mxCell id="node4" value="&lt;p style=&quot;margin:0px;margin-top:4px;text-align:center;&quot;&gt;&lt;b&gt;TBL_RANKING&lt;/b&gt;&lt;/p&gt;&lt;hr size=&quot;1&quot;/&gt;&lt;p style=&quot;margin:0 0 0 4px;line-height:1.6;&quot;&gt; score: varchar(64)&lt;/p&gt;&lt;hr size=&quot;1&quot;/&gt;&lt;p style=&quot;margin:0 0 0 4px;line-height:1.6;&quot;&gt; creator_id: uuid&lt;/p&gt;" style="verticalAlign=top;align=left;overflow=fill;fontSize=14;fontFamily=Helvetica;html=1;rounded=0;shadow=0;comic=0;labelBackgroundColor=none;strokeWidth=1;fillColor=#FAD9D5;strokeColor=#D0CEE2;fontColor=#1A1A1A;" parent="1" vertex="1">
          <mxGeometry x="65" y="812" width="173" height="105" as="geometry" />
        </mxCell>
        <mxCell id="node7" value="&lt;p style=&quot;margin:0px;margin-top:4px;text-align:center;&quot;&gt;&lt;b&gt;TBL_SERIALCODE&lt;/b&gt;&lt;/p&gt;&lt;hr size=&quot;1&quot;/&gt;&lt;p style=&quot;margin:0 0 0 4px;line-height:1.6;&quot;&gt; serial_code: varchar(64)&lt;/p&gt;&lt;hr size=&quot;1&quot;/&gt;&lt;p style=&quot;margin:0 0 0 4px;line-height:1.6;&quot;&gt; purchase_id: uuid&lt;br/&gt; item_id: uuid&lt;/p&gt;" style="verticalAlign=top;align=left;overflow=fill;fontSize=14;fontFamily=Helvetica;html=1;rounded=0;shadow=0;comic=0;labelBackgroundColor=none;strokeWidth=1;fillColor=#FAD9D5;strokeColor=#D0CEE2;fontColor=#1A1A1A;" parent="1" vertex="1">
          <mxGeometry x="927" y="798" width="209" height="135" as="geometry" />
        </mxCell>
        <mxCell id="node11" value="&lt;p style=&quot;margin:0px;margin-top:4px;text-align:center;&quot;&gt;&lt;b&gt;TBL_TAG&lt;/b&gt;&lt;/p&gt;&lt;hr size=&quot;1&quot;/&gt;&lt;p style=&quot;margin:0 0 0 4px;line-height:1.6;&quot;&gt; tag_name: varchar(64)&lt;/p&gt;&lt;hr size=&quot;1&quot;/&gt;&lt;p style=&quot;margin:0 0 0 4px;line-height:1.6;&quot;&gt; tag_id: uuid&lt;/p&gt;" style="verticalAlign=top;align=left;overflow=fill;fontSize=14;fontFamily=Helvetica;html=1;rounded=0;shadow=0;comic=0;labelBackgroundColor=none;strokeWidth=1;fillColor=#FAD9D5;strokeColor=#D0CEE2;fontColor=#1A1A1A;" parent="1" vertex="1">
          <mxGeometry x="932" y="-48" width="198" height="105" as="geometry" />
        </mxCell>
        <mxCell id="node13" value="&lt;p style=&quot;margin:0px;margin-top:4px;text-align:center;&quot;&gt;&lt;b&gt;TBL_USER&lt;/b&gt;&lt;/p&gt;&lt;hr size=&quot;1&quot;/&gt;&lt;p style=&quot;margin:0 0 0 4px;line-height:1.6;&quot;&gt; user_name: varchar(64)&lt;br/&gt; user_screen_id: uuid&lt;br/&gt; user_icon_uuid: uuid&lt;br/&gt; user_date: timestamp&lt;br/&gt; user_mail: varchar(64)&lt;/p&gt;&lt;hr size=&quot;1&quot;/&gt;&lt;p style=&quot;margin:0 0 0 4px;line-height:1.6;&quot;&gt; user_id: uuid&lt;/p&gt;" style="verticalAlign=top;align=left;overflow=fill;fontSize=14;fontFamily=Helvetica;html=1;rounded=0;shadow=0;comic=0;labelBackgroundColor=none;strokeWidth=1;fillColor=#FAD9D5;strokeColor=#D0CEE2;fontColor=#1A1A1A;" parent="1" vertex="1">
          <mxGeometry x="469" y="-104" width="205" height="209" as="geometry" />
        </mxCell>
        <mxCell id="edge7" value="" style="html=1;rounded=1;edgeStyle=orthogonalEdgeStyle;dashed=0;startArrow=none;endArrow=block;endSize=12;strokeColor=#09555B;exitX=0.500;exitY=0.000;exitDx=0;exitDy=0;entryX=0.250;entryY=1.000;entryDx=0;entryDy=0;labelBackgroundColor=none;fontColor=default;" parent="1" source="node3" target="node13" edge="1">
          <mxGeometry width="50" height="50" relative="1" as="geometry">
            <Array as="points">
              <mxPoint x="251" y="140" />
              <mxPoint x="520" y="140" />
            </Array>
          </mxGeometry>
        </mxCell>
        <mxCell id="label44" value="user_id" style="edgeLabel;resizable=0;html=1;align=left;verticalAlign=top;strokeColor=#D0CEE2;labelBackgroundColor=none;fontColor=#1A1A1A;" parent="edge7" vertex="1" connectable="0">
          <mxGeometry x="362" y="120" as="geometry" />
        </mxCell>
        <mxCell id="edge10" value="" style="html=1;rounded=1;edgeStyle=orthogonalEdgeStyle;dashed=0;startArrow=none;endArrow=block;endSize=12;strokeColor=#09555B;exitX=0.750;exitY=0.000;exitDx=0;exitDy=0;entryX=0.100;entryY=1.000;entryDx=0;entryDy=0;labelBackgroundColor=none;fontColor=default;" parent="1" source="node12" target="node3" edge="1">
          <mxGeometry width="50" height="50" relative="1" as="geometry">
            <Array as="points">
              <mxPoint x="38" y="800" />
              <mxPoint x="151" y="800" />
              <mxPoint x="151" y="420" />
              <mxPoint x="153" y="420" />
            </Array>
          </mxGeometry>
        </mxCell>
        <mxCell id="label62" value="creator_id" style="edgeLabel;resizable=0;html=1;align=left;verticalAlign=top;strokeColor=#D0CEE2;labelBackgroundColor=none;fontColor=#1A1A1A;" parent="edge10" vertex="1" connectable="0">
          <mxGeometry x="92" y="600" as="geometry" />
        </mxCell>
        <mxCell id="edge15" value="" style="html=1;rounded=1;edgeStyle=orthogonalEdgeStyle;dashed=0;startArrow=none;endArrow=block;endSize=12;strokeColor=#09555B;exitX=0.250;exitY=0.000;exitDx=0;exitDy=0;entryX=0.250;entryY=1.000;entryDx=0;entryDy=0;labelBackgroundColor=none;fontColor=default;" parent="1" source="node12" target="node9" edge="1">
          <mxGeometry width="50" height="50" relative="1" as="geometry">
            <Array as="points">
              <mxPoint x="-90" y="960" />
              <mxPoint x="-89" y="140" />
              <mxPoint x="-93" y="140" />
            </Array>
          </mxGeometry>
        </mxCell>
        <mxCell id="label92" value="product_id" style="edgeLabel;resizable=0;html=1;align=left;verticalAlign=top;strokeColor=#D0CEE2;labelBackgroundColor=none;fontColor=#1A1A1A;" parent="edge15" vertex="1" connectable="0">
          <mxGeometry x="-151" y="540" as="geometry" />
        </mxCell>
        <mxCell id="edge12" value="" style="html=1;rounded=1;edgeStyle=orthogonalEdgeStyle;dashed=0;startArrow=none;endArrow=block;endSize=12;strokeColor=#09555B;exitX=0.500;exitY=0.000;exitDx=0;exitDy=0;entryX=0.300;entryY=1.000;entryDx=0;entryDy=0;labelBackgroundColor=none;fontColor=default;" parent="1" source="node0" target="node3" edge="1">
          <mxGeometry width="50" height="50" relative="1" as="geometry">
            <Array as="points">
              <mxPoint x="311" y="800" />
              <mxPoint x="202" y="800" />
            </Array>
          </mxGeometry>
        </mxCell>
        <mxCell id="label74" value="recruiting_creator_id:creator_id" style="edgeLabel;resizable=0;html=1;align=left;verticalAlign=top;strokeColor=#D0CEE2;labelBackgroundColor=none;fontColor=#1A1A1A;" parent="edge12" vertex="1" connectable="0">
          <mxGeometry x="224" y="780" as="geometry" />
        </mxCell>
        <mxCell id="edge16" value="" style="html=1;rounded=1;edgeStyle=orthogonalEdgeStyle;dashed=0;startArrow=none;endArrow=block;endSize=12;strokeColor=#09555B;exitX=0.250;exitY=0.000;exitDx=0;exitDy=0;entryX=0.250;entryY=1.000;entryDx=0;entryDy=0;labelBackgroundColor=none;fontColor=default;" parent="1" source="node8" target="node9" edge="1">
          <mxGeometry width="50" height="50" relative="1" as="geometry">
            <Array as="points">
              <mxPoint x="-28" y="440" />
              <mxPoint x="-89" y="440" />
              <mxPoint x="-89" y="140" />
              <mxPoint x="-93" y="140" />
            </Array>
          </mxGeometry>
        </mxCell>
        <mxCell id="label98" value="product_id" style="edgeLabel;resizable=0;html=1;align=left;verticalAlign=top;strokeColor=#D0CEE2;labelBackgroundColor=none;fontColor=#1A1A1A;" parent="edge16" vertex="1" connectable="0">
          <mxGeometry x="-151" y="280" as="geometry" />
        </mxCell>
        <mxCell id="edge8" value="" style="html=1;rounded=1;edgeStyle=orthogonalEdgeStyle;dashed=0;startArrow=none;endArrow=block;endSize=12;strokeColor=#09555B;exitX=0.750;exitY=0.000;exitDx=0;exitDy=0;entryX=0.250;entryY=1.000;entryDx=0;entryDy=0;labelBackgroundColor=none;fontColor=default;" parent="1" source="node8" target="node13" edge="1">
          <mxGeometry width="50" height="50" relative="1" as="geometry">
            <Array as="points">
              <mxPoint x="51" y="220" />
              <mxPoint x="251" y="220" />
              <mxPoint x="251" y="140" />
              <mxPoint x="520" y="140" />
            </Array>
          </mxGeometry>
        </mxCell>
        <mxCell id="label50" value="user_id" style="edgeLabel;resizable=0;html=1;align=left;verticalAlign=top;strokeColor=#D0CEE2;labelBackgroundColor=none;fontColor=#1A1A1A;" parent="edge8" vertex="1" connectable="0">
          <mxGeometry x="205" y="170" as="geometry" />
        </mxCell>
        <mxCell id="edge2" value="" style="html=1;rounded=1;edgeStyle=orthogonalEdgeStyle;dashed=0;startArrow=none;endArrow=block;endSize=12;strokeColor=#09555B;exitX=0.500;exitY=0.000;exitDx=0;exitDy=0;entryX=0.700;entryY=1.000;entryDx=0;entryDy=0;labelBackgroundColor=none;fontColor=default;" parent="1" source="node6" target="node3" edge="1">
          <mxGeometry width="50" height="50" relative="1" as="geometry">
            <Array as="points">
              <mxPoint x="491" y="740" />
              <mxPoint x="300" y="740" />
            </Array>
          </mxGeometry>
        </mxCell>
        <mxCell id="label14" value="sender_creator_id:creator_id" style="edgeLabel;resizable=0;html=1;align=left;verticalAlign=top;strokeColor=#D0CEE2;labelBackgroundColor=none;fontColor=#1A1A1A;" parent="edge2" vertex="1" connectable="0">
          <mxGeometry x="328" y="730" as="geometry" />
        </mxCell>
        <mxCell id="edge11" value="" style="html=1;rounded=1;edgeStyle=orthogonalEdgeStyle;dashed=0;startArrow=none;endArrow=block;endSize=12;strokeColor=#09555B;exitX=0.167;exitY=0.000;exitDx=0;exitDy=0;entryX=0.500;entryY=1.000;entryDx=0;entryDy=0;labelBackgroundColor=none;fontColor=default;" parent="1" source="node6" target="node3" edge="1">
          <mxGeometry width="50" height="50" relative="1" as="geometry">
            <Array as="points">
              <mxPoint x="386" y="760" />
              <mxPoint x="251" y="760" />
            </Array>
          </mxGeometry>
        </mxCell>
        <mxCell id="label68" value="sent_creator_id:creator_id" style="edgeLabel;resizable=0;html=1;align=left;verticalAlign=top;strokeColor=#D0CEE2;labelBackgroundColor=none;fontColor=#1A1A1A;" parent="edge11" vertex="1" connectable="0">
          <mxGeometry x="238" y="750" as="geometry" />
        </mxCell>
        <mxCell id="edge14" value="" style="html=1;rounded=1;edgeStyle=orthogonalEdgeStyle;dashed=0;startArrow=none;endArrow=block;endSize=12;strokeColor=#09555B;exitX=0.833;exitY=0.000;exitDx=0;exitDy=0;entryX=0.500;entryY=1.000;entryDx=0;entryDy=0;labelBackgroundColor=none;fontColor=default;" parent="1" source="node6" target="node1" edge="1">
          <mxGeometry width="50" height="50" relative="1" as="geometry">
            <Array as="points">
              <mxPoint x="596" y="700" />
              <mxPoint x="591" y="700" />
              <mxPoint x="591" y="580" />
              <mxPoint x="491" y="580" />
            </Array>
          </mxGeometry>
        </mxCell>
        <mxCell id="label86" value="notification_id" style="edgeLabel;resizable=0;html=1;align=left;verticalAlign=top;strokeColor=#D0CEE2;labelBackgroundColor=none;fontColor=#1A1A1A;" parent="edge14" vertex="1" connectable="0">
          <mxGeometry x="511" y="630" as="geometry" />
        </mxCell>
        <mxCell id="edge13" value="" style="html=1;rounded=1;edgeStyle=orthogonalEdgeStyle;dashed=0;startArrow=none;endArrow=block;endSize=12;strokeColor=#09555B;exitX=0.167;exitY=0.000;exitDx=0;exitDy=0;entryX=0.900;entryY=1.000;entryDx=0;entryDy=0;labelBackgroundColor=none;fontColor=default;" parent="1" source="node5" target="node3" edge="1">
          <mxGeometry width="50" height="50" relative="1" as="geometry">
            <Array as="points">
              <mxPoint x="682" y="720" />
              <mxPoint x="349" y="720" />
            </Array>
          </mxGeometry>
        </mxCell>
        <mxCell id="label80" value="sell_creator_id:creator_id" style="edgeLabel;resizable=0;html=1;align=left;verticalAlign=top;strokeColor=#D0CEE2;labelBackgroundColor=none;fontColor=#1A1A1A;" parent="edge13" vertex="1" connectable="0">
          <mxGeometry x="444" y="700" as="geometry" />
        </mxCell>
        <mxCell id="edge3" value="" style="html=1;rounded=1;edgeStyle=orthogonalEdgeStyle;dashed=0;startArrow=none;endArrow=block;endSize=12;strokeColor=#09555B;exitX=0.500;exitY=0.000;exitDx=0;exitDy=0;entryX=0.500;entryY=1.000;entryDx=0;entryDy=0;labelBackgroundColor=none;fontColor=default;" parent="1" source="node5" target="node1" edge="1">
          <mxGeometry width="50" height="50" relative="1" as="geometry">
            <Array as="points">
              <mxPoint x="791" y="700" />
              <mxPoint x="591" y="700" />
              <mxPoint x="591" y="580" />
              <mxPoint x="491" y="580" />
            </Array>
          </mxGeometry>
        </mxCell>
        <mxCell id="label20" value="notification_id" style="edgeLabel;resizable=0;html=1;align=left;verticalAlign=top;strokeColor=#D0CEE2;labelBackgroundColor=none;fontColor=#1A1A1A;" parent="edge3" vertex="1" connectable="0">
          <mxGeometry x="511" y="610" as="geometry" />
        </mxCell>
        <mxCell id="edge18" value="" style="html=1;rounded=1;edgeStyle=orthogonalEdgeStyle;dashed=0;startArrow=none;endArrow=block;endSize=12;strokeColor=#09555B;exitX=0.833;exitY=0.000;exitDx=0;exitDy=0;entryX=0.750;entryY=1.000;entryDx=0;entryDy=0;labelBackgroundColor=none;fontColor=default;" parent="1" source="node5" target="node13" edge="1">
          <mxGeometry width="50" height="50" relative="1" as="geometry">
            <Array as="points">
              <mxPoint x="900" y="680" />
              <mxPoint x="631" y="680" />
              <mxPoint x="631" y="180" />
              <mxPoint x="622" y="180" />
            </Array>
          </mxGeometry>
        </mxCell>
        <mxCell id="label110" value="purchase_user_id:user_id" style="edgeLabel;resizable=0;html=1;align=left;verticalAlign=top;strokeColor=#D0CEE2;labelBackgroundColor=none;fontColor=#1A1A1A;" parent="edge18" vertex="1" connectable="0">
          <mxGeometry x="481" y="420" as="geometry" />
        </mxCell>
        <mxCell id="edge17" value="" style="html=1;rounded=1;edgeStyle=orthogonalEdgeStyle;dashed=0;startArrow=none;endArrow=block;endSize=12;strokeColor=#09555B;exitX=0.250;exitY=0.000;exitDx=0;exitDy=0;entryX=0.750;entryY=1.000;entryDx=0;entryDy=0;labelBackgroundColor=none;fontColor=default;" parent="1" source="node10" target="node9" edge="1">
          <mxGeometry width="50" height="50" relative="1" as="geometry">
            <Array as="points">
              <mxPoint x="956" y="400" />
              <mxPoint x="791" y="400" />
              <mxPoint x="791" y="160" />
              <mxPoint x="35" y="160" />
            </Array>
          </mxGeometry>
        </mxCell>
        <mxCell id="label104" value="item_id:product_id" style="edgeLabel;resizable=0;html=1;align=left;verticalAlign=top;strokeColor=#D0CEE2;labelBackgroundColor=none;fontColor=#1A1A1A;" parent="edge17" vertex="1" connectable="0">
          <mxGeometry x="685" y="270" as="geometry" />
        </mxCell>
        <mxCell id="edge5" value="" style="html=1;rounded=1;edgeStyle=orthogonalEdgeStyle;dashed=0;startArrow=none;endArrow=block;endSize=12;strokeColor=#09555B;exitX=0.750;exitY=0.000;exitDx=0;exitDy=0;entryX=0.500;entryY=1.000;entryDx=0;entryDy=0;labelBackgroundColor=none;fontColor=default;" parent="1" source="node10" target="node11" edge="1">
          <mxGeometry width="50" height="50" relative="1" as="geometry">
            <Array as="points">
              <mxPoint x="1067" y="440" />
              <mxPoint x="1031" y="440" />
            </Array>
          </mxGeometry>
        </mxCell>
        <mxCell id="label32" value="tag_id" style="edgeLabel;resizable=0;html=1;align=left;verticalAlign=top;strokeColor=#D0CEE2;labelBackgroundColor=none;fontColor=#1A1A1A;" parent="edge5" vertex="1" connectable="0">
          <mxGeometry x="1048" y="420" as="geometry" />
        </mxCell>
        <mxCell id="edge1" value="" style="html=1;rounded=1;edgeStyle=orthogonalEdgeStyle;dashed=0;startArrow=none;endArrow=block;endSize=12;strokeColor=#09555B;exitX=0.750;exitY=0.000;exitDx=0;exitDy=0;entryX=0.750;entryY=1.000;entryDx=0;entryDy=0;labelBackgroundColor=none;fontColor=default;" parent="1" source="node2" target="node9" edge="1">
          <mxGeometry width="50" height="50" relative="1" as="geometry">
            <Array as="points">
              <mxPoint x="797" y="400" />
              <mxPoint x="791" y="400" />
              <mxPoint x="791" y="160" />
              <mxPoint x="35" y="160" />
            </Array>
          </mxGeometry>
        </mxCell>
        <mxCell id="label8" value="item_id:product_id" style="edgeLabel;resizable=0;html=1;align=left;verticalAlign=top;strokeColor=#D0CEE2;labelBackgroundColor=none;fontColor=#1A1A1A;" parent="edge1" vertex="1" connectable="0">
          <mxGeometry x="685" y="310" as="geometry" />
        </mxCell>
        <mxCell id="edge4" value="" style="html=1;rounded=1;edgeStyle=orthogonalEdgeStyle;dashed=0;startArrow=none;endArrow=block;endSize=12;strokeColor=#09555B;exitX=0.250;exitY=0.000;exitDx=0;exitDy=0;entryX=0.250;entryY=1.000;entryDx=0;entryDy=0;labelBackgroundColor=none;fontColor=default;" parent="1" source="node2" target="node13" edge="1">
          <mxGeometry width="50" height="50" relative="1" as="geometry">
            <Array as="points">
              <mxPoint x="705" y="220" />
              <mxPoint x="251" y="220" />
              <mxPoint x="251" y="140" />
              <mxPoint x="520" y="140" />
            </Array>
          </mxGeometry>
        </mxCell>
        <mxCell id="label26" value="user_id" style="edgeLabel;resizable=0;html=1;align=left;verticalAlign=top;strokeColor=#D0CEE2;labelBackgroundColor=none;fontColor=#1A1A1A;" parent="edge4" vertex="1" connectable="0">
          <mxGeometry x="205" y="190" as="geometry" />
        </mxCell>
        <mxCell id="edge6" value="" style="html=1;rounded=1;edgeStyle=orthogonalEdgeStyle;dashed=0;startArrow=none;endArrow=block;endSize=12;strokeColor=#09555B;exitX=0.500;exitY=0.000;exitDx=0;exitDy=0;entryX=0.100;entryY=1.000;entryDx=0;entryDy=0;labelBackgroundColor=none;fontColor=default;" parent="1" source="node4" target="node3" edge="1">
          <mxGeometry width="50" height="50" relative="1" as="geometry">
            <Array as="points">
              <mxPoint x="151" y="420" />
              <mxPoint x="153" y="420" />
            </Array>
          </mxGeometry>
        </mxCell>
        <mxCell id="label38" value="creator_id" style="edgeLabel;resizable=0;html=1;align=left;verticalAlign=top;strokeColor=#D0CEE2;labelBackgroundColor=none;fontColor=#1A1A1A;" parent="edge6" vertex="1" connectable="0">
          <mxGeometry x="94" y="410" as="geometry" />
        </mxCell>
        <mxCell id="edge9" value="" style="html=1;rounded=1;edgeStyle=orthogonalEdgeStyle;dashed=0;startArrow=none;endArrow=block;endSize=12;strokeColor=#09555B;exitX=0.750;exitY=0.000;exitDx=0;exitDy=0;entryX=0.750;entryY=1.000;entryDx=0;entryDy=0;labelBackgroundColor=none;fontColor=default;" parent="1" source="node7" target="node9" edge="1">
          <mxGeometry width="50" height="50" relative="1" as="geometry">
            <Array as="points">
              <mxPoint x="1083" y="640" />
              <mxPoint x="871" y="640" />
              <mxPoint x="871" y="400" />
              <mxPoint x="791" y="400" />
              <mxPoint x="791" y="160" />
              <mxPoint x="35" y="160" />
            </Array>
          </mxGeometry>
        </mxCell>
        <mxCell id="label56" value="item_id:product_id" style="edgeLabel;resizable=0;html=1;align=left;verticalAlign=top;strokeColor=#D0CEE2;labelBackgroundColor=none;fontColor=#1A1A1A;" parent="edge9" vertex="1" connectable="0">
          <mxGeometry x="685" y="330" as="geometry" />
        </mxCell>
        <mxCell id="edge0" value="" style="html=1;rounded=1;edgeStyle=orthogonalEdgeStyle;dashed=0;startArrow=none;endArrow=block;endSize=12;strokeColor=#09555B;exitX=0.250;exitY=0.000;exitDx=0;exitDy=0;entryX=0.500;entryY=1.000;entryDx=0;entryDy=0;labelBackgroundColor=none;fontColor=default;" parent="1" source="node7" target="node2" edge="1">
          <mxGeometry width="50" height="50" relative="1" as="geometry">
            <Array as="points">
              <mxPoint x="979" y="660" />
              <mxPoint x="751" y="660" />
            </Array>
          </mxGeometry>
        </mxCell>
        <mxCell id="label2" value="purchase_id" style="edgeLabel;resizable=0;html=1;align=left;verticalAlign=top;strokeColor=#D0CEE2;labelBackgroundColor=none;fontColor=#1A1A1A;" parent="edge0" vertex="1" connectable="0">
          <mxGeometry x="906" y="650" as="geometry" />
        </mxCell>
        <mxCell id="DoyufD5SQqUETy7kTCPM-5" value="pk" style="text;html=1;align=center;verticalAlign=middle;whiteSpace=wrap;rounded=0;fillColor=#fff2cc;strokeColor=#d6b656;labelBackgroundColor=none;" vertex="1" parent="1">
          <mxGeometry x="50" y="-80" width="40" height="20" as="geometry" />
        </mxCell>
      </root>
    </mxGraphModel>
  </diagram>
</mxfile>
